<?xml version="1.0" encoding="UTF-8"?>
<svg id="Layer_1" xmlns="http://www.w3.org/2000/svg" version="1.1" viewBox="0 0 882.22 190.43">
  <!-- Generator: Adobe Illustrator 29.8.3, SVG Export Plug-In . SVG Version: 2.1.1 Build 3)  -->
  <defs>
    <style>
      .st0 {
        fill: #4d4d4d;
      }

      .st1 {
        isolation: isolate;
      }

      .st2 {
        stroke: #8cc63f;
      }

      .st2, .st3, .st4 {
        fill: none;
        stroke-linecap: round;
        stroke-miterlimit: 10;
        stroke-width: 33px;
      }

      .st3 {
        stroke: #009245;
      }

      .st4 {
        stroke: #39b54a;
      }
    </style>
  </defs>
  <path class="st2" d="M16.68,95.3c3.54-.38,36.41-3.29,59.79,22.95,20.26,22.74,18.33,50.48,17.94,55.09"/>
  <path class="st4" d="M263.08,94.23c-3.54-.38-36.41-3.29-59.79,22.95-20.26,22.74-18.33,50.48-17.94,55.09"/>
  <path class="st2" d="M185.22,16.5c-.38,3.54-3.29,36.41,22.95,59.79,22.74,20.26,50.48,18.33,55.09,17.94"/>
  <path class="st4" d="M94.55,17.57c.38,3.54,3.29,36.41-22.95,59.79-22.74,20.26-50.48,18.33-55.09,17.94"/>
  <line class="st3" x1="94.41" y1="173.93" x2="185.22" y2="17.08"/>
  <g>
    <g class="st1">
      <g class="st1">
        <path class="st0" d="M336.53,35.81c.26.03.49.1.7.2.21.1.41.24.6.42.19.18.41.43.65.73l24.67,31.43c-.09-.76-.15-1.5-.18-2.23-.03-.73-.05-1.4-.05-2.03v-28.57h7.7v47h-4.52c-.69,0-1.27-.11-1.72-.33-.45-.22-.9-.61-1.33-1.17l-24.57-31.3c.06.69.11,1.38.15,2.06.03.68.05,1.31.05,1.87v28.86h-7.7v-47h4.58c.39,0,.71.02.98.05Z"/>
        <path class="st0" d="M421.42,82.76h-6.76c-.76,0-1.38-.19-1.87-.57-.49-.38-.84-.85-1.06-1.41l-3.51-9.59h-19.47l-3.51,9.59c-.17.5-.51.95-1.02,1.37-.51.41-1.13.62-1.87.62h-6.79l18.46-47h8.94l18.46,47ZM391,65.01h14.98l-5.72-15.63c-.26-.69-.55-1.51-.86-2.45-.31-.94-.62-1.97-.93-3.07-.3,1.1-.6,2.13-.89,3.09-.29.95-.58,1.79-.86,2.5l-5.72,15.57Z"/>
        <path class="st0" d="M436.11,82.76h-8.77v-47h8.77v47Z"/>
        <path class="st0" d="M471.29,65.42c.31.75.62,1.5.93,2.26.3-.78.62-1.55.94-2.31.33-.76.67-1.48,1.04-2.18l13.91-26.03c.17-.33.35-.58.54-.78.18-.19.39-.33.62-.42.23-.09.48-.14.76-.16.28-.02.62-.03,1.01-.03h6.6v47h-7.7v-30.36c0-.56.02-1.18.05-1.85.03-.67.08-1.35.15-2.05l-14.2,26.65c-.33.61-.75,1.08-1.27,1.41s-1.13.5-1.82.5h-1.2c-.69,0-1.3-.17-1.82-.5-.52-.34-.94-.81-1.27-1.41l-14.4-26.75c.09.71.15,1.41.18,2.1.03.68.05,1.32.05,1.9v30.36h-7.7v-47h6.6c.39,0,.73.01,1.01.03.28.02.54.08.76.16.23.09.44.23.63.42s.38.46.55.78l14.04,26.1c.37.69.71,1.41,1.02,2.16Z"/>
      </g>
      <g class="st1">
        <path class="st0" d="M554.21,36.19v5.13h-22.36v15.47h18.1v4.94h-18.1v15.89h22.36v5.13h-28.7v-46.57h28.7Z"/>
        <path class="st0" d="M569.58,77.46h20.15v5.3h-26.46v-46.57h6.31v41.27Z"/>
        <path class="st0" d="M647.55,82.76h-4.88c-.56,0-1.02-.14-1.37-.42-.35-.28-.61-.64-.78-1.07l-4.35-11.25h-20.9l-4.36,11.25c-.15.39-.41.74-.78,1.04-.37.3-.82.46-1.36.46h-4.88l18.62-46.57h6.4l18.62,46.57ZM617.03,65.47h17.39l-7.31-18.95c-.48-1.17-.94-2.63-1.4-4.39-.24.89-.47,1.71-.7,2.45-.23.75-.45,1.4-.67,1.97l-7.31,18.92Z"/>
        <path class="st0" d="M677.14,67.57c.23.57.45,1.15.67,1.74.22-.61.44-1.19.68-1.74.24-.55.51-1.11.81-1.67l15.76-28.63c.28-.5.57-.8.88-.91.3-.11.74-.16,1.3-.16h4.65v46.57h-5.53v-34.22c0-.46.01-.94.03-1.46.02-.52.05-1.05.1-1.59l-15.96,29.12c-.54.97-1.3,1.46-2.28,1.46h-.91c-.98,0-1.73-.49-2.28-1.46l-16.32-29.22c.07.56.11,1.12.15,1.66.03.54.05,1.04.05,1.5v34.22h-5.53v-46.57h4.65c.56,0,1,.05,1.3.16.3.11.6.41.88.91l16.09,28.67c.3.52.57,1.07.8,1.64Z"/>
        <path class="st0" d="M720.16,63.33v19.43h-6.27v-46.57h13.16c2.95,0,5.49.3,7.64.89,2.14.6,3.92,1.46,5.31,2.58s2.43,2.49,3.1,4.08c.67,1.59,1.01,3.38,1.01,5.35,0,1.65-.26,3.18-.78,4.62-.52,1.43-1.27,2.71-2.26,3.85-.99,1.14-2.19,2.11-3.61,2.91s-3.03,1.41-4.83,1.82c.78.46,1.47,1.12,2.08,1.98l13.58,18.49h-5.59c-1.15,0-1.99-.44-2.54-1.33l-12.09-16.64c-.37-.52-.77-.89-1.2-1.12-.43-.23-1.08-.34-1.95-.34h-4.78ZM720.16,58.74h6.6c1.84,0,3.46-.22,4.86-.67s2.57-1.07,3.51-1.88,1.65-1.78,2.13-2.91c.48-1.13.71-2.37.71-3.74,0-2.77-.92-4.86-2.75-6.27-1.83-1.41-4.56-2.11-8.17-2.11h-6.89v17.58Z"/>
        <path class="st0" d="M762.57,82.76h-6.3v-46.57h6.3v46.57Z"/>
      </g>
    </g>
    <g class="st1">
      <g class="st1">
        <path class="st0" d="M358.58,109.58v5.13h-22.36v16.28h19.11v5.14h-19.11v20.02h-6.34v-46.57h28.7Z"/>
        <path class="st0" d="M402.52,109.58v5.13h-22.36v15.47h18.1v4.94h-18.1v15.89h22.36v5.13h-28.7v-46.57h28.7Z"/>
        <path class="st0" d="M425.66,136.72v19.43h-6.27v-46.57h13.16c2.95,0,5.49.3,7.64.89s3.92,1.46,5.31,2.58,2.43,2.49,3.1,4.08c.67,1.59,1.01,3.38,1.01,5.35,0,1.65-.26,3.18-.78,4.62-.52,1.43-1.27,2.71-2.26,3.85-.99,1.14-2.19,2.11-3.61,2.91-1.42.8-3.03,1.41-4.83,1.82.78.46,1.47,1.12,2.08,1.98l13.58,18.49h-5.59c-1.15,0-1.99-.44-2.54-1.33l-12.09-16.64c-.37-.52-.77-.89-1.2-1.12-.43-.23-1.08-.34-1.95-.34h-4.78ZM425.66,132.13h6.6c1.84,0,3.46-.22,4.86-.67s2.57-1.07,3.51-1.88c.94-.81,1.65-1.78,2.13-2.91.48-1.13.72-2.37.72-3.74,0-2.77-.92-4.86-2.75-6.27-1.83-1.41-4.56-2.11-8.17-2.11h-6.89v17.58Z"/>
        <path class="st0" d="M472.25,109.79c.27.14.58.43.93.86l26.98,35.1c-.07-.56-.11-1.11-.13-1.64s-.03-1.04-.03-1.54v-32.99h5.52v46.57h-3.18c-.5,0-.92-.09-1.25-.26s-.67-.47-.99-.88l-26.94-35.07c.04.54.08,1.07.1,1.59.02.52.03,1,.03,1.43v33.18h-5.53v-46.57h3.25c.56,0,.98.07,1.25.21Z"/>
        <path class="st0" d="M562.36,156.15h-4.88c-.56,0-1.02-.14-1.37-.42-.35-.28-.61-.64-.78-1.07l-4.35-11.25h-20.9l-4.36,11.25c-.15.39-.41.74-.78,1.04-.37.3-.82.46-1.37.46h-4.88l18.62-46.57h6.4l18.62,46.57ZM531.84,138.86h17.39l-7.31-18.95c-.48-1.17-.94-2.63-1.4-4.39-.24.89-.47,1.71-.7,2.45-.23.75-.45,1.4-.67,1.97l-7.31,18.92Z"/>
        <path class="st0" d="M579.89,109.79c.27.14.58.43.93.86l26.97,35.1c-.06-.56-.11-1.11-.13-1.64-.02-.53-.03-1.04-.03-1.54v-32.99h5.52v46.57h-3.18c-.5,0-.92-.09-1.25-.26s-.67-.47-.99-.88l-26.94-35.07c.04.54.08,1.07.1,1.59.02.52.03,1,.03,1.43v33.18h-5.53v-46.57h3.25c.56,0,.98.07,1.25.21Z"/>
        <path class="st0" d="M672.04,132.88c0,3.49-.55,6.66-1.66,9.52-1.1,2.86-2.66,5.31-4.68,7.34-2.01,2.04-4.43,3.61-7.25,4.73-2.82,1.12-5.94,1.67-9.36,1.67h-17.42v-46.57h17.42c3.42,0,6.54.56,9.36,1.67,2.82,1.12,5.23,2.7,7.25,4.75,2.02,2.05,3.58,4.5,4.68,7.36,1.11,2.86,1.66,6.04,1.66,9.52ZM665.58,132.88c0-2.86-.39-5.42-1.17-7.67-.78-2.25-1.88-4.16-3.32-5.72-1.43-1.56-3.16-2.75-5.2-3.58-2.04-.82-4.3-1.23-6.79-1.23h-11.08v36.37h11.08c2.49,0,4.76-.41,6.79-1.24,2.04-.82,3.77-2.01,5.2-3.56,1.43-1.55,2.54-3.45,3.32-5.7.78-2.25,1.17-4.81,1.17-7.67Z"/>
        <path class="st0" d="M716.47,109.58v5.13h-22.36v15.47h18.1v4.94h-18.1v15.89h22.36v5.13h-28.7v-46.57h28.7Z"/>
        <path class="st0" d="M765.12,109.58v2.34c0,.74-.23,1.43-.68,2.08l-26.36,37.02h26.58v5.13h-34.84v-2.47c0-.65.21-1.27.62-1.85l26.39-37.12h-25.77v-5.13h34.06Z"/>
      </g>
    </g>
  </g>
</svg>