<?xml version="1.0" encoding="UTF-8"?>
<svg id="Layer_1" data-name="Layer 1" xmlns="http://www.w3.org/2000/svg" viewBox="0 0 1280.52 957.18">
  <defs>
    <style>
      .cls-1 {
        fill: #009245;
      }

      .cls-2 {
        fill: none;
        stroke: #009245;
        stroke-miterlimit: 10;
        stroke-width: 15px;
      }
    </style>
  </defs>
  <g>
    <line class="cls-2" x1="87.78" y1="230.42" x2="311.34" y2="6.85"/>
    <line class="cls-1" x1="87.78" y1="230.42" x2="311.34" y2="6.85"/>
  </g>
  <g>
    <line class="cls-2" x1="406.41" y1="230.23" x2="629.97" y2="6.66"/>
    <line class="cls-1" x1="406.41" y1="230.23" x2="629.97" y2="6.66"/>
  </g>
  <g>
    <line class="cls-2" x1="733.03" y1="229.06" x2="956.59" y2="5.5"/>
    <line class="cls-1" x1="733.03" y1="229.06" x2="956.59" y2="5.5"/>
  </g>
  <g>
    <line class="cls-2" x1="1051.65" y1="228.87" x2="1275.22" y2="5.3"/>
    <line class="cls-1" x1="1051.65" y1="228.87" x2="1275.22" y2="5.3"/>
  </g>
  <g>
    <line class="cls-2" x1="87.78" y1="470.9" x2="311.34" y2="247.34"/>
    <line class="cls-1" x1="87.78" y1="470.9" x2="311.34" y2="247.34"/>
  </g>
  <g>
    <line class="cls-2" x1="406.41" y1="470.71" x2="629.97" y2="247.14"/>
    <line class="cls-1" x1="406.41" y1="470.71" x2="629.97" y2="247.14"/>
  </g>
  <g>
    <line class="cls-2" x1="733.03" y1="469.55" x2="956.59" y2="245.98"/>
    <line class="cls-1" x1="733.03" y1="469.55" x2="956.59" y2="245.98"/>
  </g>
  <g>
    <line class="cls-2" x1="1051.65" y1="469.35" x2="1275.22" y2="245.79"/>
    <line class="cls-1" x1="1051.65" y1="469.35" x2="1275.22" y2="245.79"/>
  </g>
  <g>
    <line class="cls-2" x1="87.78" y1="711.39" x2="311.34" y2="487.82"/>
    <line class="cls-1" x1="87.78" y1="711.39" x2="311.34" y2="487.82"/>
  </g>
  <g>
    <line class="cls-2" x1="406.41" y1="711.19" x2="629.97" y2="487.63"/>
    <line class="cls-1" x1="406.41" y1="711.19" x2="629.97" y2="487.63"/>
  </g>
  <g>
    <line class="cls-2" x1="733.03" y1="710.03" x2="956.59" y2="486.47"/>
    <line class="cls-1" x1="733.03" y1="710.03" x2="956.59" y2="486.47"/>
  </g>
  <g>
    <line class="cls-2" x1="1051.65" y1="709.84" x2="1275.22" y2="486.27"/>
    <line class="cls-1" x1="1051.65" y1="709.84" x2="1275.22" y2="486.27"/>
  </g>
  <g>
    <line class="cls-2" x1="87.78" y1="951.87" x2="311.34" y2="728.31"/>
    <line class="cls-1" x1="87.78" y1="951.87" x2="311.34" y2="728.31"/>
  </g>
  <g>
    <line class="cls-2" x1="406.41" y1="951.68" x2="629.97" y2="728.11"/>
    <line class="cls-1" x1="406.41" y1="951.68" x2="629.97" y2="728.11"/>
  </g>
  <g>
    <line class="cls-2" x1="733.03" y1="950.52" x2="956.59" y2="726.95"/>
    <line class="cls-1" x1="733.03" y1="950.52" x2="956.59" y2="726.95"/>
  </g>
  <g>
    <line class="cls-2" x1="1051.65" y1="950.32" x2="1275.22" y2="726.76"/>
    <line class="cls-1" x1="1051.65" y1="950.32" x2="1275.22" y2="726.76"/>
  </g>
</svg>