<?xml version="1.0" encoding="UTF-8"?>
<svg id="Layer_1" data-name="Layer 1" xmlns="http://www.w3.org/2000/svg" viewBox="0 0 1368.59 1134.26">
  <defs>
    <style>
      .cls-1 {
        fill: #009245;
      }

      .cls-2 {
        fill: none;
        stroke: #009245;
        stroke-miterlimit: 10;
        stroke-width: 15px;
      }
    </style>
  </defs>
  <g>
    <line class="cls-2" x1="5.3" y1="262.71" x2="262.71" y2="5.3"/>
    <line class="cls-1" x1="5.3" y1="262.71" x2="262.71" y2="5.3"/>
  </g>
  <g>
    <line class="cls-2" x1="372.16" y1="285.51" x2="629.57" y2="28.11"/>
    <line class="cls-1" x1="372.16" y1="285.51" x2="629.57" y2="28.11"/>
  </g>
  <g>
    <line class="cls-2" x1="739.02" y1="275.5" x2="996.43" y2="18.09"/>
    <line class="cls-1" x1="739.02" y1="275.5" x2="996.43" y2="18.09"/>
  </g>
  <g>
    <line class="cls-2" x1="1105.88" y1="298.3" x2="1363.29" y2="40.89"/>
    <line class="cls-1" x1="1105.88" y1="298.3" x2="1363.29" y2="40.89"/>
  </g>
  <g>
    <line class="cls-2" x1="5.3" y1="539.6" x2="262.71" y2="282.19"/>
    <line class="cls-1" x1="5.3" y1="539.6" x2="262.71" y2="282.19"/>
  </g>
  <g>
    <line class="cls-2" x1="372.16" y1="562.4" x2="629.57" y2="304.99"/>
    <line class="cls-1" x1="372.16" y1="562.4" x2="629.57" y2="304.99"/>
  </g>
  <g>
    <line class="cls-2" x1="739.02" y1="552.38" x2="996.43" y2="294.98"/>
    <line class="cls-1" x1="739.02" y1="552.38" x2="996.43" y2="294.98"/>
  </g>
  <g>
    <line class="cls-2" x1="1105.88" y1="575.19" x2="1363.29" y2="317.78"/>
    <line class="cls-1" x1="1105.88" y1="575.19" x2="1363.29" y2="317.78"/>
  </g>
  <g>
    <line class="cls-2" x1="5.3" y1="816.48" x2="262.71" y2="559.08"/>
    <line class="cls-1" x1="5.3" y1="816.48" x2="262.71" y2="559.08"/>
  </g>
  <g>
    <line class="cls-2" x1="372.16" y1="839.29" x2="629.57" y2="581.88"/>
    <line class="cls-1" x1="372.16" y1="839.29" x2="629.57" y2="581.88"/>
  </g>
  <g>
    <line class="cls-2" x1="739.02" y1="829.27" x2="996.43" y2="571.86"/>
    <line class="cls-1" x1="739.02" y1="829.27" x2="996.43" y2="571.86"/>
  </g>
  <g>
    <line class="cls-2" x1="1105.88" y1="852.07" x2="1363.29" y2="594.67"/>
    <line class="cls-1" x1="1105.88" y1="852.07" x2="1363.29" y2="594.67"/>
  </g>
  <g>
    <line class="cls-2" x1="5.3" y1="1093.37" x2="262.71" y2="835.96"/>
    <line class="cls-1" x1="5.3" y1="1093.37" x2="262.71" y2="835.96"/>
  </g>
  <g>
    <line class="cls-2" x1="372.16" y1="1116.17" x2="629.57" y2="858.77"/>
    <line class="cls-1" x1="372.16" y1="1116.17" x2="629.57" y2="858.77"/>
  </g>
  <g>
    <line class="cls-2" x1="739.02" y1="1106.16" x2="996.43" y2="848.75"/>
    <line class="cls-1" x1="739.02" y1="1106.16" x2="996.43" y2="848.75"/>
  </g>
  <g>
    <line class="cls-2" x1="1105.88" y1="1128.96" x2="1363.29" y2="871.55"/>
    <line class="cls-1" x1="1105.88" y1="1128.96" x2="1363.29" y2="871.55"/>
  </g>
</svg>